# xmcd
#
# Track frame offsets:
#	150
#	11850
#	32570
#	42270
#	67362
#	81210
#	97882
#	109495
#	127747
#	140875
#	158962
#	172834
#	187717
#	201065
#
# Disc length: 2888 seconds
#
# Revision: 0
# Processed by: cddbd v1.4b42PL1 Copyright (c) Steve Scherf et al.
# Submitted via: audiograbber 1.80.04
#
DISCID=bb0b460e
DTITLE=Henry Gray - Henry Gray Plays Chicago Blues
DYEAR=2001
DGENRE=Blues
TTITLE0=Talkin' 'Bout You
TTITLE1=Times Are Getting Hard
TTITLE2=Henry's Houserocker
TTITLE3=Trouble Blues
TTITLE4=How Many More Years
TTITLE5=It Hurts Me Too
TTITLE6=How Could You Do It
TTITLE7=I Held My Baby Last Night
TTITLE8=Everybody's Fishin'
TTITLE9=Don't Start That Stuff
TTITLE10=They Raided the Joint
TTITLE11=Ain't No Use
TTITLE12=That Ain't Right
TTITLE13=Showers of Rain
EXTD=2001, Hightone Music Group, CD 8131\nProducer: Bob Corritore
EXTT0=
EXTT1=
EXTT2=
EXTT3=
EXTT4=
EXTT5=
EXTT6=
EXTT7=
EXTT8=
EXTT9=
EXTT10=
EXTT11=
EXTT12=
EXTT13=
PLAYORDER=
